<?xml version="1.0" encoding="utf-8"?>
<!-- Generator: Adobe Illustrator 23.0.0, SVG Export Plug-In . SVG Version: 6.00 Build 0)  -->
<svg version="1.1" id="Layer_1" xmlns="http://www.w3.org/2000/svg" xmlns:xlink="http://www.w3.org/1999/xlink" x="0px" y="0px"
	 viewBox="0 0 5000 5000" style="enable-background:new 0 0 5000 5000;" xml:space="preserve">
<style type="text/css">
	.st0{stroke:#000000;stroke-miterlimit:10;}
	.st1{fill:#FFFFFF;}
</style>
<circle class="st0" cx="2500" cy="2500" r="2250"/>
<g>
	<path class="st1" d="M1960.68,2910.78c45.67,4.04,81.55,6.76,117.3,10.66c10.24,1.12,16.9-0.97,24.11-8.63
		c39.83-42.28,79.93-84.33,120.79-125.61c16.74-16.91,37.38-26.46,62.45-25.2c46.35,2.33,72.78,29.45,72.4,76.2
		c-0.26,31.54-8.9,61.53-24.45,88.3c-22.41,38.58-45.34,77.3-72.39,112.64c-63.17,82.54-114.98,171.42-159.06,265.28
		c-23.37,49.77-46.85,99.88-86.13,139.83c-13.27,13.5-27.95,25.89-43.26,37.05c-37.85,27.59-66.31,62.95-87.3,104.22
		c-6.35,12.47-7.35,27.55-12.19,40.93c-12.53,34.64-22.49,70.79-39.71,103.02c-20.19,37.8-46.85,72.16-70.89,107.88
		c-26.08,38.74-52.2,77.45-78.66,115.93c-14.24,20.71-27.82,42.11-44.19,61.04c-25.9,29.97-62.15,38.61-99.79,41.96
		c-89.31,7.93-162.68-23.69-223.57-88.67c-66.02-70.46-116.71-151.22-162.09-235.66c-52.15-97.02-98.69-196.54-128.17-303.11
		c-5.99-21.67-8.72-44.28-12.22-66.58c-1.01-6.42-0.08-13.35,1.02-19.87c2.97-17.57,14.29-24.39,29.78-15.57
		c13.17,7.5,26.61,16.87,35.76,28.65c36.84,47.43,72.92,95.5,107.64,144.51c37.16,52.45,70.84,107.96,121.06,149.23
		c47.24,38.81,99.49,69.83,161.73,78.23c49.98,6.75,92.23-10.69,126.97-46.02c21-21.36,20.96-47.66,2.12-71.02
		c-2.26-2.8-4.79-5.37-7.23-8.02c-13.48-14.64-20.53-28.59-7.29-48.97c9.83-15.13,14.04-34.04,20.05-51.51
		c6.5-18.9,19.42-28.24,39.14-28.95c27.23-0.98,54.46-2.29,81.69-3.08c20.91-0.61,36.44-9.36,45.77-28.37
		c6.33-12.9,12.86-25.71,18.95-38.73c5.28-11.28,3.69-21.38-7.62-27.98c-23.1-13.48-31.23-34.72-30.84-59.83
		c0.37-24.1,1.16-48.26,3.52-72.23c1.7-17.26,13.04-28.05,30.43-29.84c23.99-2.47,48.24-2.57,72.16-5.49
		c45.59-5.56,86.4-22.43,119.22-55.62c17.24-17.44,27.49-38.39,28.03-63.29c0.36-16.51-4.37-22.05-20.76-21.32
		c-21.55,0.97-42.99,4.32-64.53,5.46c-15.29,0.81-30.8,0.73-46.01-0.88c-16.87-1.78-28.69-13.05-28.62-29.43
		c0.14-31.11,1.91-62.46,6.71-93.13c1.39-8.85,14.3-20.22,23.9-22.66C1906.98,2918.79,1938.48,2914.71,1960.68,2910.78z"/>
	<path class="st1" d="M3152.94,3071.42c-36.77,0-69.56-0.21-102.35,0.11c-12.82,0.13-25.64,1.3-38.44,2.28
		c-12.26,0.94-16.52,8.11-15.77,19.95c2.49,39.28,24.73,65.5,56.54,84.86c36.58,22.25,77.29,29.97,119.47,31.12
		c18.51,0.5,37.07-0.54,55.54,0.46c4.29,0.23,11.47,5.5,11.93,9.13c4.28,34.14,7.69,68.41,10.74,102.69
		c2.03,22.81-7.69,39.17-29.91,46.12c-12.7,3.97-15.4,12.31-13.6,23.63c3.78,23.81,12.62,45.53,28.27,64.08
		c13.95,16.54,33.51,19.76,53.26,19.21c27.21-0.75,54.39-3.18,81.51-5.62c9.94-0.89,14.52,2.26,17.6,11.91
		c8.57,26.89,18.2,53.44,27.58,80.06c6.18,17.53,3.44,31.94-12.5,43.39c-11.22,8.06-21.47,17.47-32.98,26.96
		c29.83,44.53,60.43,86.96,118.16,95.86c40.3,6.21,77.3-6.14,113.3-22.34c71.15-32,124.16-85.36,169.43-146.91
		c41.4-56.29,80.51-114.25,121.58-170.79c11.7-16.11,26.25-30.27,40.36-44.47c6.77-6.82,14.96-12.78,23.52-17.14
		c16.81-8.56,28.78-3.2,28.71,15.41c-0.1,24.88-2,50.46-8.11,74.48c-24.86,97.67-67.88,188.25-113.27,277.64
		c-40.76,80.28-84.73,158.7-141.19,229.38c-46.55,58.27-101.87,103.89-174.72,126.09c-99.3,30.25-180.56-4.07-231.98-94.63
		c-22.67-39.93-50.73-77.24-79.72-113c-32.71-40.34-60.86-82.7-79.04-131.41c-10.42-27.92-22-55.52-30.34-84.06
		c-16-54.71-45.84-100.56-89.64-135.61c-66.15-52.94-109.8-121.16-145.16-196.49c-47.76-101.77-106.53-196.89-174.97-286.19
		c-27.14-35.42-54.05-71.47-67.33-115.22c-7.53-24.8-12.9-49.81-7.2-75.84c5.94-27.14,22.05-45.07,49.29-51.37
		c35.92-8.31,68.46-3.26,93.9,26.55c21.02,24.64,44.68,47.43,62.87,73.99c25.33,36.99,59.37,48.12,101.81,48.21
		c51.86,0.11,103.79,2.64,155.53,6.28c29.49,2.07,33.81,6.13,37.6,34.94C3148.14,2992.67,3149.7,3030.68,3152.94,3071.42z"/>
	<path class="st1" d="M2674.26,1574.58c2.75,27.81,5.2,53.31,7.8,78.8c2.57,25.19-4.36,47.76-18.32,68.52
		c-14.63,21.75-29.23,43.52-43.77,65.33c-24.44,36.66-22.07,71.84,4.19,107c11.28,15.1,21.61,31.58,28.83,48.9
		c13.1,31.44,5.42,60.51-16.6,85.82c-12.13,13.95-25.47,26.89-37.18,41.17c-14.17,17.28-14.2,20.23-0.82,37.4
		c11.68,14.98,24.63,28.97,36.95,43.47c39.3,46.25,38.47,91.71-2.43,136.53c-39.69,43.48-40.2,60.41-3.98,106.6
		c13.63,17.38,27.86,34.47,39.57,53.11c20.86,33.23,19.34,60.77-5.66,90.82c-17.71,21.29-37.74,40.69-57.39,60.28
		c-7.45,7.42-10.61,14.88-10.68,25.57c-0.44,66.34-0.54,132.71-3.01,198.99c-2.11,56.67-47.98,96.75-101.88,90.96
		c-38.16-4.1-60.84-29.21-77.69-61.05c-18.88-35.69-18.9-74.19-16.22-112.93c2.56-36.94,5.25-73.89,9.14-110.7
		c1.17-11.1-2.39-18.13-9.27-25.91c-25.51-28.86-50.13-58.5-75.56-87.42c-13.85-15.75-12.73-30.63-1.23-47.08
		c22.67-32.43,44.97-65.12,66.79-98.12c25.14-38.03,24.66-40.37-5.72-75.08c-10.8-12.34-22.92-23.83-31.96-37.36
		c-23.4-35.03-19.79-68.44,9.02-99.56c10.81-11.68,22.86-22.42,32.31-35.1c23.34-31.31,19.33-57.11-11.08-81.26
		c-38.4-30.49-48.02-67.85-26.9-112.06c8.35-17.48,18.95-34.27,30.82-49.59c19.01-24.53,21.67-49.51,6.1-75.81
		c-13.6-22.96-27.75-45.69-43.12-67.49c-20.36-28.88-30.2-60.11-28.34-95.54c1.15-21.99,0.21-44.08,0.21-67.96
		c-13.93,1.43-29.52,3.39-45.17,4.52c-15.36,1.11-30.83,2.4-46.16,1.72c-16.21-0.71-23.09-8.6-22.8-24.89
		c0.91-51.82,23.11-94.76,55.34-133.99c54.92-66.85,125.65-99.62,211.56-98.66c40.99,0.46,82.17,2.34,122.86,7.02
		c53.06,6.1,94.51,36.08,130.48,73.34c30.64,31.74,55.65,67.62,65.49,111.68c2.76,12.36,3.93,25.59,2.85,38.16
		c-1.75,20.57-8.25,25.99-28.94,25.72c-23.63-0.3-47.24-1.96-70.86-3.04C2686.79,1575.2,2681.75,1574.94,2674.26,1574.58z"/>
	<path class="st1" d="M1669.8,991.77c73.74-2.4,141.58,20.87,208.03,47.32c65.33,26.01,125.28,19.68,183.12-19.04
		c29.89-20.01,59.98-39.84,91.05-57.91c14.38-8.36,30.95-13.7,47.16-18.02c33.2-8.83,60.05,3.14,79.47,30.27
		c19.89,27.78,20.77,58.58,3.26,87.03c-12.18,19.78-28.12,38.16-45.52,53.63c-30.91,27.49-41.97,58.48-26.86,97.72
		c8.85,22.99,19.35,45.56,25.68,69.24c4.78,17.9,6.31,37.38,5.29,55.94c-1.18,21.35-15.96,33.31-36.56,38.33
		c-58.06,14.14-110.45-1.98-158.52-32.79c-38.43-24.63-74.34-53.2-111.46-79.89c-35.46-25.49-70.08-52.31-106.78-75.89
		c-81.79-52.56-170.73-60.29-263.89-38.4c-72.45,17.03-144.72,35.31-217.88,48.58c-37.94,6.88-77.64,5.28-116.53,5.13
		c-16.55-0.07-35.44-3.98-41.84-23.04c-6.04-18,4.97-33.22,17.66-42.96c19.7-15.12,40.97-29.59,63.78-39.01
		c98.34-40.62,198.83-75.39,303.35-96.41C1603.83,995.15,1637.1,994.87,1669.8,991.77z"/>
	<path class="st1" d="M3738.11,1206.53c-89.65-3.96-167.55-22.39-245.48-41.68c-44.24-10.96-89.2-20.3-134.4-25.78
		c-68.58-8.31-132.2,11.09-188.53,49.31c-58.2,39.49-113.7,82.97-170.38,124.7c-30.58,22.51-59.42,49.06-98.57,55.08
		c-30.73,4.73-62.14,8.47-93.09,7.5c-37.7-1.18-55.03-23.69-49.4-60.75c3.52-23.17,10.09-46.12,17.65-68.38
		c8.41-24.75,19.94-48.42,29-72.98c1.74-4.72,0.32-13.13-3-16.8c-21.06-23.23-42.83-45.83-64.81-68.2
		c-24.81-25.25-34.63-55.35-30.31-90.15c3.28-26.42,22.59-39.49,44.12-49.17c25.59-11.51,51.84-13.04,76.94,2.16
		c36.48,22.09,72.68,44.64,109.11,66.81c26.92,16.39,54.9,30.02,86.68,34.56c39.55,5.66,76.26-5.3,113.13-17.19
		c39-12.58,77.75-27.02,117.72-35.28c62.77-12.97,126.09-6.52,188.52,5.66c106.82,20.85,209.8,54.03,307.96,101.17
		c18.27,8.77,35.8,20.61,50.88,34.14c25.39,22.78,18.33,49.88-14.76,58.25C3768.35,1204.26,3748.6,1205.11,3738.11,1206.53z"/>
	<path class="st1" d="M1868.41,2789.04c-95.72-0.21-182.3-29.03-262.66-79.09c-149.35-93.02-271.33-213.09-358.79-366.43
		c-33.21-58.22-57.17-120.61-69.19-186.91c-5.12-28.23,10.35-48.43,31.04-64.54c11.14-8.67,22.39-2.7,29.68,6.81
		c17.16,22.39,35.04,44.55,49.32,68.76c94.78,160.72,225.99,284.03,386.51,376.89c58.66,33.94,120.37,61.01,190.67,58.09
		c35.96-1.49,71.9-3.7,107.87-4.97c24.65-0.87,49.34-0.8,74.01-0.91c43.03-0.2,73.77,50.38,44.12,92.17
		c-36.15,50.95-84.92,81.38-146.06,91.63C1919.66,2784.79,1893.93,2786.29,1868.41,2789.04z"/>
	<path class="st1" d="M3122.98,2787.36c-50.57-1.24-112.35-11.29-167.09-47.88c-26.42-17.66-46.22-41.24-57.5-70.67
		c-3.59-9.38-3.27-22.85,0.72-32.08c15.5-35.79,33.85-44.55,73.13-42.18c56.96,3.43,113.99,5.99,171.02,7.99
		c62.36,2.19,118.44-19.24,170.64-50.6c146.74-88.17,272.56-199.64,371.45-340.12c19.2-27.28,35.45-56.61,53.93-84.42
		c6.47-9.73,14.83-18.52,23.57-26.37c22.34-20.08,49.37-12.68,54.57,16.95c3.54,20.15,3.09,42.4-1.49,62.35
		c-20.08,87.38-60.54,165.83-112.6,238.12c-91.33,126.82-203.05,231.6-339.9,308.45
		C3292.21,2766.89,3214.83,2787.43,3122.98,2787.36z"/>
	<path class="st1" d="M1908.76,2458.74c-89.16,2.78-166.98-30.21-239.79-77.42c-154.64-100.27-278.7-229.71-368.21-391.27
		c-26.28-47.44-47.03-97.52-52.25-152.04c-1.96-20.48,2.46-41.69,5.15-62.42c0.81-6.24,4.91-12.44,8.66-17.86
		c10.52-15.22,24.79-15.45,34.22,0.39c16.81,28.24,34.82,56.13,48.1,86.05c45.44,102.35,117.61,183.87,197.55,259.67
		c53.14,50.39,109.33,96.7,175.28,129.9c73.03,36.76,151.13,51.41,232.07,54.98c31.2,1.38,63.01,1.8,93.3,8.35
		c51.7,11.19,59.08,33.66,33,79.5c-34.08,59.9-87.33,82.37-153.18,82.16C1918.01,2458.73,1913.39,2458.74,1908.76,2458.74z"/>
	<path class="st1" d="M3107.33,2460.3c-48.73-0.48-91.48-4.43-130.76-25.55c-35.55-19.11-55.73-49.19-62.42-88.55
		c-3.29-19.37,3.7-35.26,23.08-39.7c36.84-8.44,74.34-15.26,111.94-18.88c78.49-7.55,156.58-16.13,228.99-50.18
		c87.33-41.07,161.25-99.88,224.31-172.69c67.23-77.63,126.51-160.5,170.65-253.75c8.47-17.89,20.68-34.33,33.14-49.85
		c5.05-6.29,16.28-12.59,23.01-11.13c6.31,1.37,13.09,12.34,15,20.21c9.92,40.89,5.98,81.53-5.4,121.7
		c-20.9,73.76-58.9,138.83-103.75,199.96c-91.99,125.37-202.21,231.22-338.64,307.61c-47.9,26.82-96.47,53.34-152.83,58.65
		C3129.86,2459.45,3115.96,2459.81,3107.33,2460.3z"/>
	<path class="st1" d="M1354.49,1568.62c1.45-39.97,3.4-72.71,25.83-98.93c7.88-9.22,19.77-15.01,29.83-22.36
		c6.2,10.15,15.1,19.57,18.09,30.6c9.01,33.15,14.3,67.33,23.62,100.38c18.3,64.91,55.92,118.72,102.38,166.37
		c111.11,113.96,243.11,195.05,393.02,247.69c28.48,10,57.87,18.78,84.22,32.97c18.78,10.11,36.15,26.16,48.91,43.42
		c24.57,33.24-4.14,81.79-44.89,89.68c-81.98,15.87-153.23-11.83-222.94-47.45c-127.51-65.14-241.59-148.63-337.45-255.57
		C1400.24,1771.88,1364.88,1671.64,1354.49,1568.62z"/>
	<path class="st1" d="M3639.38,1564.68c-4.01,122.8-52,227.41-134.99,315.98c-73.73,78.69-163.24,137.51-254.14,194.22
		c-64.71,40.37-133.14,71.68-208.81,83.85c-23.96,3.86-49.2,3.49-73.42,0.94c-23.98-2.53-41.92-17.15-48.66-41.51
		c-7.09-25.62-6.73-51.72,15.18-69.71c17.55-14.41,37.99-26.49,58.96-35.29c43.51-18.27,88.97-31.95,132.31-50.58
		c124.15-53.37,236.25-124.84,326.73-226.77c54.85-61.79,95.22-131.03,107.81-214.59c2.93-19.43,10.57-38.73,19.18-56.58
		c10.64-22.06,22.76-21.68,37.7-2.78c20.15,25.5,23.65,55.11,23.34,85.92C3640.49,1553.41,3639.78,1559.04,3639.38,1564.68z"/>
	<path class="st1" d="M3895.7,2465.61c-0.42,43.81-15.97,82.33-34.3,119.87c-70.39,144.13-173.3,259.97-305.16,350.76
		c-58.49,40.27-117.19,80.1-184,105.61c-39.53,15.09-80,26.88-123.19,20.57c-32.07-4.69-45.54-16.01-51.58-48.07
		c-3.46-18.36-3.13-37.67-2.58-56.5c0.46-15.79,8.46-27.92,23.58-35.08c58.45-27.69,116.91-55.36,175.04-83.72
		c63.64-31.04,130.13-57.4,185.37-103.17c84.97-70.39,157.09-152.24,214.71-246.6c7.76-12.71,16.31-24.94,24.65-37.28
		c2.29-3.39,5.09-6.46,7.78-9.57c15.67-18.11,38.15-25.54,56.51-16.92C3900.83,2434.11,3892.73,2452.33,3895.7,2465.61z"/>
	<path class="st1" d="M1718.46,3064.4c-47.24-0.3-89.73-16.9-130.27-38.73c-176.25-94.91-324.17-220.52-425.91-395.7
		c-24.29-41.83-47.01-84.46-59.37-131.59c-3.22-12.29-4.97-25.3-5.09-38.01c-0.29-32.65,26.16-47.49,54.76-31.2
		c27.4,15.61,44.32,41.12,59.94,67.06c32.15,53.38,65.95,105.36,109.03,150.87c66.59,70.36,145.15,124.23,231.48,166.74
		c59.86,29.48,121.34,55.69,181.87,83.82c13.46,6.26,26.32,13.98,38.92,21.88c29.28,18.36,43.76,51.99,36.51,83.29
		c-7.37,31.86-32.71,54.23-67.36,59.18C1734.86,3063.18,1726.64,3063.62,1718.46,3064.4z"/>
	<path class="st1" d="M3477.01,1404.35c11.1,152.76-67.44,257.01-184.52,338.97c-78.75,55.14-166.15,90.18-262.85,96.62
		c-24.42,1.63-51-1.23-73.83-9.58c-48.57-17.75-57.48-82.42-17.83-115.98c29.46-24.94,66.15-34.36,102.15-44.72
		c50.27-14.48,101.51-26.11,150.84-43.25c112.36-39.04,168.07-122.8,179.27-238.49c3.51-36.27,4.13-72.82,6.34-109.23
		c0.46-7.66,1.56-15.37,3.28-22.85c6.3-27.48,21.95-35.18,48.03-23.9c21.04,9.09,34.36,25.86,37.81,47.5
		c6.6,41.45,10.52,83.33,15.54,125.04C3479.83,1404.44,3478.42,1404.4,3477.01,1404.35z"/>
	<path class="st1" d="M1521.51,1408.24c2.82-37.92,5.21-75.88,8.6-113.75c2.91-32.56,24.93-50.62,51.96-63.59
		c12.93-6.2,22.61-2.34,26.32,11.76c4.41,16.74,5.55,34.32,8.43,51.49c9.41,56.15,17.27,112.63,28.88,168.33
		c15.23,73.06,62.96,120.88,130.29,147.25c58.64,22.97,119.84,39.31,179.24,60.47c34.66,12.34,68.89,26.65,101.65,43.33
		c23.86,12.14,41.47,32.44,35.08,62.41c-6.5,30.51-24.36,50.94-56.87,57.4c-60.74,12.08-119.72,5.04-177.59-14.64
		c-104.77-35.62-192.76-96.05-263.25-181.33C1539.38,1570.96,1512.23,1495.4,1521.51,1408.24z"/>
	<path class="st1" d="M3361.76,3304.87c-48.44-0.2-75.97-26.76-71.67-69.68c2.42-24.2,15.6-41.45,37.97-50.02
		c37.32-14.3,74.48-29.71,112.91-40.26c99.72-27.37,178.84-84.73,247.25-160.25c55.24-60.98,110.83-121.54,156.65-190.19
		c15.68-23.49,29.84-48.01,45.7-71.37c14.61-21.52,31.32-40.76,59.62-44.92c21.2-3.12,30.48,2.38,27.97,24.01
		c-3.35,28.83-8.44,57.97-17.28,85.53c-23.98,74.71-65.05,140.63-111.95,202.85c-77.22,102.46-169.18,188.76-280.76,253.36
		C3508.34,3278.56,3420.09,3305.11,3361.76,3304.87z"/>
	<path class="st1" d="M1633.52,3306.82c-63.53-3.23-115.5-22.33-166.22-45.37c-60.53-27.51-113.42-66.59-162.14-111.26
		c-68.26-62.6-136.34-125.8-187.42-203.91c-42.63-65.2-77.49-134.55-91.72-212.21c-2.42-13.2-1.37-27.74,1.34-40.99
		c2.83-13.85,14.27-20.03,27.08-14.22c14.13,6.42,28.28,14.95,39.16,25.82c12.93,12.91,24.56,28.17,32.98,44.37
		c41.06,79.02,99.24,144.85,159.43,209.01c31.98,34.09,65.05,67.44,100.27,98.07c21.77,18.93,46.9,35.98,73.35,47.16
		c64.74,27.36,130.56,52.47,197.04,75.3c48.15,16.53,50.77,49.81,42.4,92.82c-2.85,14.66-14.97,23.62-28.72,27.76
		C1656.28,3303.41,1641.46,3305.24,1633.52,3306.82z"/>
	<path class="st1" d="M3501.11,3549.54c-3.61-0.26-7.2-0.48-10.78-0.8c-23.55-2.16-45.07-7.16-52.33-34.4
		c-7.94-29.78,0.38-56.74,24.54-73.57c18.53-12.91,37.19-25.95,57.03-36.62c74.61-40.09,138.21-94.33,198.81-152.5
		c72.29-69.4,144.2-139.2,216.59-208.49c10.72-10.26,22.55-19.69,35.06-27.62c8.12-5.14,18.41-6.86,27.73-10.11
		c0.48,10.21,4.17,21.63,0.88,30.43c-14.72,39.31-28.16,79.64-48.05,116.36c-51.1,94.33-120.35,175.11-197.14,249.48
		c-49.25,47.69-101.83,91.17-162.22,124.47C3563.12,3541.67,3532.8,3548.07,3501.11,3549.54z"/>
	<path class="st1" d="M1503.43,3549.27c-55.14-3.19-99.56-20.67-138.92-50.61c-119.58-90.98-225.89-194.6-303.96-324.41
		c-25.71-42.75-49.41-86.66-59.04-136.49c-0.68-3.52-2.14-7.46-1.2-10.61c2.19-7.39,4.24-15.76,9.25-20.91
		c1.87-1.91,13.34,2.46,17.88,6.7c54.8,51.3,109.65,102.56,163.43,154.92c65.95,64.22,130.55,130.03,206,183.34
		c34.77,24.57,72.72,44.61,108.22,68.2c17.83,11.85,34.91,25.64,49.72,41.06c26.71,27.78,18.21,64.4-17.85,79.89
		C1524.92,3545.51,1511.41,3547.22,1503.43,3549.27z"/>
	<path class="st1" d="M2067.85,1576.61c-111.53-15.03-211.18-56.09-296.24-129.81c-31.32-27.14-50.46-61.52-52.32-104.42
		c-1.58-36.6,15.88-52.96,49.86-40.07c31.4,11.91,60.99,28.86,90.76,44.74c16.71,8.91,32.14,20.22,48.22,30.34
		c50.26,31.64,102.34,58.86,162.42,66.63c4.04,0.52,8,1.81,11.94,2.96c52.24,15.28,69.56,48.46,53.5,101.33
		c-4.02,13.23-11.7,21.47-25.46,23.31C2096.34,1573.51,2082.1,1574.96,2067.85,1576.61z"/>
	<path class="st1" d="M2927.83,1574.21c-6.67,0-13.4,0.53-20.01-0.09c-41.77-3.88-68.98-50.36-50-88.14
		c5.24-10.42,16.78-20.16,27.72-24.73c23.55-9.85,48.24-17.59,73.09-23.59c68.39-16.51,127.16-51.29,183.27-92.11
		c18.61-13.54,38.99-24.73,59-36.23c7.01-4.03,15.15-6.5,23.08-8.41c32.47-7.81,45.82,3.65,47.37,36.67
		c2.61,55.44-21.68,97.75-63.65,130.24C3125.4,1531.54,3029.53,1561.02,2927.83,1574.21z"/>
	<path class="st1" d="M2486.36,3122.25c-48.03,2.17-92.43-13.85-136.8-28.08c-30.31-9.72-33.61-17.84-21.84-46.47
		c15.79-38.44,33.81-75.96,50.56-114.01c5.83-13.25,12.64-16.09,25.68-7.49c25.28,16.67,51.61,31.74,77.44,47.58
		c11.24,6.89,22.12,6.66,33.36-0.16c26.36-15.99,52.7-32.04,79.39-47.47c17.04-9.86,20.72-9.5,28.67,7.74
		c18.48,40.06,36.05,80.57,52.77,121.39c6.96,16.99,3.17,23.54-13.47,32.2c-36.28,18.87-76.01,24.75-115.84,29.73
		C2526.41,3119.69,2506.34,3120.62,2486.36,3122.25z"/>
	<path class="st1" d="M2181.93,2194.8c-17.8-2.18-35.87-3.12-53.33-6.87c-18.28-3.92-24.25-15.48-19.2-33.52
		c2.61-9.35,6.5-18.39,10.38-27.32c11.74-27.09,16.62-54.77,10.65-84.25c-4.09-20.23,0.26-28.18,15.26-33.47
		c41.9-14.78,123.12,10.97,148.31,47.03c18.32,26.22,18.91,50.98,0.45,77.17C2267.17,2172.22,2233.4,2199.38,2181.93,2194.8z"/>
	<path class="st1" d="M2819.58,2005.15c33.79-0.51,43.09,7.53,46.03,41.46c1.2,13.81,0.69,27.77,1.96,41.56
		c1.46,15.81,4.21,30.69,15.91,43.77c15.47,17.29,5.28,50.42-16.6,55.54c-32.86,7.7-66.11,9.3-98.87-1.39
		c-46.37-15.13-74.41-52.37-71.36-94.39c3.05-41.96,34.65-73.24,83.2-81.72C2792.98,2007.69,2806.33,2006.72,2819.58,2005.15z"/>
	<path class="st1" d="M2167.42,1886.24c-8.67-1.46-21.87-3.16-34.83-6c-11.94-2.62-16.8-10.66-14.67-22.92
		c7.04-40.39,13.63-80.86,21.05-121.19c4.28-23.28,13.88-29.43,37.95-27.25c33.9,3.07,64.99,14.37,93.72,32.14
		c44.67,27.63,47.4,80.49,5.72,113.55C2245.9,1878.73,2209.4,1883.93,2167.42,1886.24z"/>
	<path class="st1" d="M2820.85,1716.08c5.14,0,10.28-0.01,15.41,0c15.06,0.04,24.1,6.42,25.48,22.47
		c2.9,33.9,9.26,66.82,23.17,98.43c8.94,20.31,2.54,30.78-18.36,39.32c-50.92,20.81-116.01,5.69-152.73-35.46
		c-35.86-40.2-20.24-92.99,34.66-111.68c23.04-7.84,47.78-10.66,71.75-15.76C2820.44,1714.29,2820.65,1715.18,2820.85,1716.08z"/>
	<path class="st1" d="M2284.01,2545.23c-3.28,52.37-35.79,94.79-85.34,126.14c-12.71,8.04-24.91,5.19-34.23-6.36
		c-5.77-7.15-10.57-15.14-15.27-23.07c-12.56-21.18-24.48-42.75-37.37-63.73c-7.14-11.63-9.61-22.6-0.74-34.13
		c31.12-40.51,72.73-63.17,122.99-68.01C2264.27,2473.15,2284.46,2499.49,2284.01,2545.23z"/>
	<path class="st1" d="M2764.94,2472.23c14.97,4.52,26.5,6.22,36.28,11.3c21.81,11.35,43.82,22.87,63.77,37.1
		c26.12,18.62,31.04,38.91,15.75,67.15c-14.36,26.54-31.56,51.63-48.71,76.53c-10.77,15.62-17.39,16.47-33.62,6.36
		c-37.95-23.64-64.32-56.4-78.9-99.15c-10.42-30.55-3.79-57.17,16.09-80.34C2743.21,2482.3,2755.96,2477.82,2764.94,2472.23z"/>
	<path class="st1" d="M2893.9,2435.71c-43.87-1.9-83.54,4.67-121.85-9.55c-42.46-15.75-66.88-46.36-72.54-90.82
		c-1.02-7.98,3.64-21.11,9.89-24.87c39.95-24.02,83-37.33,130.49-29.66c15.78,2.55,26.76,10.85,29.89,26.81
		C2877.95,2349.26,2885.53,2391.02,2893.9,2435.71z"/>
	<path class="st1" d="M2152.18,2435.27c-49.21,0.12-49.18,0.13-39.09-47.15c5.35-25.07,9.92-50.34,16.01-75.23
		c5.79-23.67,13.36-29.25,36.96-32.23c33.21-4.19,64.42,2.57,94.03,17.21c43.49,21.51,49.71,69.07,13.51,102.44
		c-28.63,26.39-64.8,31.45-101.38,34.87C2165.59,2435.81,2158.86,2435.27,2152.18,2435.27z"/>
</g>
</svg>
